<svg width="277" height="210" viewBox="0 0 277 210" fill="none" xmlns="http://www.w3.org/2000/svg">
<path d="M0 0H276.717V139.53C276.717 158.22 271.023 176.144 260.888 189.36C250.752 202.576 237.005 210 222.671 210H54.0464C39.7124 210 25.9655 202.576 15.8298 189.36C5.69415 176.144 0 158.22 0 139.53L0 0Z" fill="#E0B973"/>
<path d="M94.0792 128.453C94.7092 128.453 94.7092 128.468 94.7092 128.888V131.048C94.7092 132.443 94.6342 132.593 93.9442 132.683L93.6142 132.728C93.4942 132.818 93.4942 133.163 93.6142 133.253C94.3342 133.223 95.0692 133.208 95.8192 133.208C96.5092 133.208 97.2442 133.223 97.9942 133.253C98.1142 133.163 98.1142 132.818 97.9942 132.728L97.6342 132.668C96.9442 132.548 96.8542 132.443 96.8542 131.048V125.468C96.8542 124.073 96.9442 123.938 97.6342 123.833L97.9342 123.788C98.0542 123.698 98.0542 123.353 97.9342 123.263C97.2442 123.293 96.5542 123.308 95.8192 123.308C95.0992 123.308 94.3642 123.293 93.5392 123.263C93.4192 123.353 93.4192 123.698 93.5392 123.788L93.9442 123.848C94.6342 123.953 94.7092 124.073 94.7092 125.468V127.208C94.7092 127.643 94.7092 127.658 94.0792 127.658H90.9592C90.3442 127.658 90.3292 127.643 90.3292 127.208V125.468C90.3292 124.073 90.4192 123.923 91.0642 123.833L91.3792 123.788C91.4992 123.698 91.4992 123.353 91.3792 123.263C90.7192 123.293 89.9692 123.308 89.2942 123.308C88.5742 123.308 87.7942 123.293 87.0592 123.263C86.9392 123.353 86.9392 123.698 87.0592 123.788L87.4192 123.833C88.1092 123.923 88.1842 124.073 88.1842 125.468V131.048C88.1842 132.443 88.1092 132.593 87.4192 132.683L87.0592 132.728C86.9392 132.818 86.9392 133.163 87.0592 133.253C87.8242 133.223 88.5742 133.208 89.2942 133.208C89.9692 133.208 90.7192 133.223 91.5742 133.253C91.6942 133.163 91.6942 132.818 91.5742 132.728L91.0942 132.668C90.4192 132.578 90.3292 132.443 90.3292 131.048V128.888C90.3292 128.468 90.3442 128.453 90.9592 128.453H94.0792ZM113.514 123.068C110.379 123.068 108.159 125.363 108.159 128.333C108.159 131.468 110.349 133.448 113.364 133.448C116.589 133.448 118.779 131.483 118.779 128.213C118.779 125.168 116.634 123.068 113.514 123.068ZM116.379 128.408C116.379 130.838 115.614 132.758 113.649 132.758C111.204 132.758 110.559 129.818 110.559 127.988C110.559 125.483 111.549 123.758 113.394 123.758C115.254 123.758 116.379 125.843 116.379 128.408ZM131.751 131.048C131.751 132.443 131.661 132.578 130.986 132.653L130.311 132.728C130.191 132.818 130.191 133.163 130.311 133.253C131.361 133.223 132.141 133.208 132.861 133.208C133.536 133.208 134.286 133.223 135.261 133.253C135.366 133.163 135.366 132.818 135.261 132.728L134.661 132.653C133.986 132.563 133.896 132.443 133.896 131.048V124.433C133.896 124.043 133.941 123.998 134.301 123.998H135.201C136.326 123.998 136.536 124.703 136.791 125.663C136.866 125.783 137.271 125.753 137.346 125.618C137.316 124.763 137.421 123.548 137.571 123.038C137.541 122.993 137.436 122.933 137.346 122.933C137.256 122.933 137.211 122.948 137.151 122.978C137.016 123.293 136.791 123.308 135.801 123.308H130.221C129.081 123.308 129.036 123.248 128.961 122.993C128.901 122.948 128.826 122.933 128.751 122.933C128.676 122.933 128.601 122.963 128.541 123.008C128.436 123.593 128.361 124.523 128.046 125.558C128.136 125.753 128.421 125.783 128.601 125.693C129.051 124.598 129.366 123.998 130.461 123.998H131.391C131.751 123.998 131.751 124.073 131.751 124.433V131.048ZM150.449 124.583C150.449 124.028 150.449 123.998 150.944 123.998H152.144C152.879 123.998 153.329 124.178 153.614 124.463C153.809 124.673 154.019 125.123 154.184 125.648C154.334 125.783 154.679 125.753 154.739 125.588C154.664 124.583 154.559 123.503 154.544 123.263C154.349 123.293 153.494 123.308 152.534 123.308H149.354C148.634 123.308 147.899 123.293 147.194 123.263C147.044 123.353 147.029 123.698 147.164 123.788L147.539 123.863C148.214 123.998 148.304 124.088 148.304 125.453V131.048C148.304 132.428 148.214 132.518 147.539 132.623L146.834 132.728C146.714 132.803 146.714 133.163 146.834 133.253C147.959 133.223 148.694 133.208 149.414 133.208H151.364C152.594 133.208 154.034 133.223 154.829 133.253C155.039 132.848 155.399 131.633 155.459 130.853C155.399 130.673 155.024 130.613 154.904 130.778C154.079 132.473 153.569 132.518 152.264 132.518C151.169 132.518 150.884 132.398 150.689 132.128C150.509 131.873 150.449 131.393 150.449 130.703V128.918C150.449 128.468 150.464 128.453 150.869 128.453H151.904C152.684 128.453 152.864 128.573 153.014 129.293L153.089 129.668C153.194 129.803 153.569 129.788 153.644 129.653C153.614 129.173 153.599 128.633 153.599 128.063C153.599 127.493 153.614 126.953 153.644 126.473C153.569 126.338 153.194 126.338 153.089 126.458L153.014 126.833C152.864 127.553 152.684 127.658 151.904 127.658H150.869C150.464 127.658 150.449 127.628 150.449 127.208V124.583ZM168.341 125.468C168.341 124.073 168.431 123.953 169.106 123.848L169.496 123.788C169.616 123.698 169.616 123.353 169.496 123.263C168.746 123.293 167.996 123.308 167.276 123.308C166.556 123.308 165.806 123.293 165.026 123.263C164.846 123.353 164.846 123.698 164.996 123.788L165.431 123.848C166.106 123.938 166.196 124.073 166.196 125.468V131.048C166.196 132.443 166.106 132.563 165.431 132.653L164.861 132.728C164.741 132.818 164.771 133.163 164.906 133.253C165.836 133.223 166.586 133.208 167.276 133.208H169.286C170.516 133.208 171.956 133.223 172.751 133.253C172.961 132.848 173.321 131.603 173.396 130.823C173.291 130.643 172.946 130.583 172.826 130.733C171.941 132.473 171.521 132.518 170.156 132.518C169.061 132.518 168.791 132.398 168.596 132.143C168.401 131.903 168.341 131.423 168.341 130.718V125.468ZM189.415 130.403C189.415 128.753 188.23 127.883 187.3 127.388L186.31 126.863C185.56 126.473 184.945 125.843 184.945 125.153C184.945 124.403 185.485 123.758 186.475 123.758C187.555 123.758 188.2 124.853 188.455 125.618C188.59 125.768 188.965 125.753 189.04 125.573C189.04 124.568 188.89 123.758 188.77 123.428C188.59 123.398 188.455 123.368 188.26 123.308C187.66 123.128 187.045 123.068 186.55 123.068C184.375 123.068 183.055 124.238 183.07 125.933C183.07 127.418 184.255 128.318 185.335 128.858C186.235 129.308 187.375 130.028 187.375 131.243C187.375 131.993 186.865 132.758 185.755 132.758C184.48 132.758 183.475 131.378 183.175 130.403C183.055 130.238 182.71 130.253 182.605 130.448C182.605 131.468 182.8 132.548 183.085 132.878C183.4 133.058 184.255 133.448 185.635 133.448C187.9 133.448 189.415 132.248 189.415 130.403Z" fill="#14274A"/>
<path d="M54.598 74.3734C54.598 70.6534 54.838 70.3334 56.638 70.0534L57.678 69.8934C57.998 69.6534 57.998 68.7334 57.678 68.4934C55.678 68.5734 53.678 68.6134 51.758 68.6134C49.838 68.6134 47.838 68.5734 45.758 68.4934C45.278 68.7334 45.278 69.6534 45.678 69.8934L46.838 70.0534C48.638 70.2934 48.878 70.6534 48.878 74.3734V89.2534C48.878 92.9734 48.638 93.2934 46.838 93.5334L45.318 93.7334C44.998 93.9734 45.078 94.8934 45.438 95.1334C47.918 95.0534 49.918 95.0134 51.758 95.0134H57.118C60.398 95.0134 64.238 95.0534 66.358 95.1334C66.918 94.0534 67.878 90.7334 68.078 88.6534C67.798 88.1734 66.878 88.0134 66.558 88.4134C64.198 93.0534 63.078 93.1734 59.438 93.1734C56.518 93.1734 55.798 92.8534 55.278 92.1734C54.758 91.5334 54.598 90.2534 54.598 88.3734V74.3734ZM76.6311 84.3734C76.6311 88.7334 77.5111 91.6934 79.5911 93.4134C81.7511 95.1734 84.4711 95.6534 87.5111 95.6534C90.7511 95.6534 93.6711 94.6534 95.4311 92.7734C97.6311 90.3334 97.9911 86.8934 97.9911 83.1334V78.6534C97.9911 75.4134 98.1511 72.3734 98.5911 71.3334C98.9511 70.4934 99.7111 70.2534 100.751 70.0134L101.471 69.8534C101.791 69.5334 101.711 68.7334 101.471 68.4934C99.9511 68.5734 98.4711 68.6134 96.9911 68.6134C95.3511 68.6134 93.7911 68.5734 91.6311 68.4934C91.3911 68.7334 91.3111 69.5334 91.6311 69.8534L92.7111 70.0534C93.7911 70.2534 94.6711 70.4934 95.0311 71.3334C95.4711 72.3734 95.6311 75.4134 95.6311 78.6534V83.4934C95.6311 88.9734 94.0711 93.4534 88.9511 93.4534C82.8711 93.4534 82.3511 88.2934 82.3511 83.6134V74.3734C82.3511 70.6534 82.5911 70.3334 84.3911 70.0134L85.3511 69.8534C85.6711 69.6134 85.6711 68.7334 85.3511 68.4934C83.4311 68.5734 81.4711 68.6134 79.5111 68.6134C77.5911 68.6134 75.5911 68.5734 73.6711 68.4934C73.2311 68.7334 73.2711 69.6134 73.5911 69.8534L74.5911 70.0534C76.3911 70.4134 76.6311 70.6534 76.6311 74.3734V84.3734ZM107.4 93.8134C107.04 94.0534 107.16 94.9334 107.56 95.1334C108.76 95.0534 110.44 95.0134 111.76 95.0134C113.44 95.0134 115.24 95.0534 117 95.1334C117.44 94.9734 117.48 94.0134 117.12 93.7334L116.08 93.6134C115.24 93.5334 114.8 93.3334 114.8 93.0934C114.8 92.8534 114.88 92.5734 115.16 92.0134C116.48 89.4934 118.36 86.4534 119.92 84.1734C120.52 84.9334 123.56 89.6134 124.16 90.6934C125.16 92.3734 125.32 92.7334 125.32 93.0534C125.32 93.2934 124.84 93.4934 123.84 93.6134L122.76 93.7334C122.36 93.9334 122.52 94.9734 122.88 95.1334C125.04 95.0534 126.84 95.0134 129.6 95.0134C132.84 95.0134 134.08 95.0534 135.84 95.1334C136.24 94.8534 136.24 94.0134 135.96 93.7334L134.72 93.5734C133.2 93.3734 132.2 92.8134 130.8 90.6934C129.36 88.5334 127.4 85.5334 124.4 80.8934C124 80.2934 123.84 79.8534 123.84 79.6534C123.84 79.4534 124.24 78.8534 124.64 78.2934C126.52 75.7334 128.28 73.0934 130.2 71.1334C130.92 70.4134 131.64 70.2534 132.48 70.1334L134.16 69.8934C134.44 69.5334 134.4 68.6934 134 68.4934C132.72 68.5734 131.08 68.6134 129.16 68.6134C127.28 68.6134 126 68.5734 124.76 68.4934C124.32 68.6934 124.32 69.6134 124.64 69.8934L126.24 70.1734C126.76 70.2534 127.04 70.4534 127.04 70.5734C127.04 70.7734 127.04 71.0534 126.6 71.7734C125.36 73.8934 124.04 75.8534 122.56 78.0934C121.32 76.2934 119.88 74.0934 118.8 72.2134C118.32 71.3734 118.16 71.0134 118.16 70.6534C118.16 70.3734 118.88 70.1734 119.52 70.0534L120.4 69.8934C120.68 69.5734 120.68 68.6934 120.24 68.4934C119 68.5734 117.4 68.6134 114.16 68.6134C111.72 68.6134 109.2 68.5734 107.92 68.4934C107.52 68.7334 107.52 69.5734 107.88 69.8934L108.56 70.0134C110.36 70.3334 111.2 70.8534 112.12 72.1734C114 74.8534 116.52 78.8134 117.84 80.7734C118.36 81.4934 118.56 82.0134 118.56 82.1734C118.56 82.4134 118.36 82.8934 118 83.4134C116.28 85.9734 114.12 89.0934 112.96 90.6134C111.64 92.4134 110.72 93.3734 108.32 93.6934L107.4 93.8134ZM144.842 84.3734C144.842 88.7334 145.722 91.6934 147.802 93.4134C149.962 95.1734 152.682 95.6534 155.722 95.6534C158.962 95.6534 161.882 94.6534 163.642 92.7734C165.842 90.3334 166.202 86.8934 166.202 83.1334V78.6534C166.202 75.4134 166.362 72.3734 166.802 71.3334C167.162 70.4934 167.922 70.2534 168.962 70.0134L169.682 69.8534C170.002 69.5334 169.922 68.7334 169.682 68.4934C168.162 68.5734 166.682 68.6134 165.202 68.6134C163.562 68.6134 162.002 68.5734 159.842 68.4934C159.602 68.7334 159.522 69.5334 159.842 69.8534L160.922 70.0534C162.002 70.2534 162.882 70.4934 163.242 71.3334C163.682 72.3734 163.842 75.4134 163.842 78.6534V83.4934C163.842 88.9734 162.282 93.4534 157.162 93.4534C151.082 93.4534 150.562 88.2934 150.562 83.6134V74.3734C150.562 70.6534 150.802 70.3334 152.602 70.0134L153.562 69.8534C153.882 69.6134 153.882 68.7334 153.562 68.4934C151.642 68.5734 149.682 68.6134 147.722 68.6134C145.802 68.6134 143.802 68.5734 141.882 68.4934C141.442 68.7334 141.482 69.6134 141.802 69.8534L142.802 70.0534C144.602 70.4134 144.842 70.6534 144.842 74.3734V84.3734ZM180.651 89.2534C180.651 92.9334 180.411 93.2134 178.611 93.5334L177.531 93.7334C177.211 93.9334 177.211 94.8934 177.531 95.1334C179.611 95.0534 181.371 95.0134 183.371 95.0134C185.291 95.0134 187.131 95.0534 189.251 95.1334C189.531 94.8934 189.531 93.9334 189.251 93.7334L188.171 93.5334C186.371 93.2134 186.131 92.9334 186.131 89.2534V84.3334C186.131 83.5334 186.211 83.4534 187.611 83.4534C188.611 83.4534 189.251 83.7734 189.731 84.8534C190.651 86.9734 191.571 88.9334 192.851 91.0534C194.611 93.9334 196.931 95.2534 200.611 95.2534C201.851 95.2534 203.131 95.1734 203.771 94.8934C203.971 94.6534 203.971 94.0534 203.611 93.8534C203.011 93.8134 201.971 93.5734 200.931 92.7334C199.011 91.0934 197.371 88.0934 194.731 82.7334C194.531 82.2934 194.531 82.0534 194.931 81.8534C196.771 80.9334 199.171 79.4134 199.171 75.8534C199.171 73.2934 197.971 71.2934 195.651 69.9334C194.131 69.0134 191.211 68.4934 187.811 68.4934C184.011 68.4934 180.891 68.6534 177.891 68.8534C177.411 69.0534 177.411 70.0534 177.811 70.2534L178.891 70.4134C180.571 70.6534 180.651 71.0934 180.651 75.0934V89.2534ZM186.131 72.3734C186.131 70.4534 186.211 70.3334 187.851 70.3334C190.971 70.3334 193.091 72.6534 193.091 76.2534C193.091 78.6134 192.331 79.8934 191.651 80.5734C190.891 81.3334 190.051 81.6934 188.611 81.6934C186.251 81.6934 186.131 81.5734 186.131 80.1734V72.3734ZM221.81 86.4534C221.81 84.1734 222.09 83.1734 223.13 81.2934L225.65 76.7334C227.57 73.2534 228.53 71.8134 229.13 71.0534C229.57 70.4934 230.49 70.2134 231.21 70.0934L232.25 69.8934C232.57 69.6134 232.57 68.6534 232.09 68.4934C230.93 68.5734 229.69 68.6134 228.17 68.6134C226.73 68.6134 225.29 68.5734 223.69 68.4934C223.29 68.6934 223.33 69.6934 223.65 69.8934L224.41 70.0534C225.37 70.2134 226.01 70.4534 226.01 70.6934C226.01 71.1734 225.53 72.3734 224.09 75.2134C223.05 77.2534 221.81 79.8534 220.65 81.8134C220.17 80.8134 219.25 78.9734 218.65 77.6534L216.77 73.3734C215.93 71.4934 215.73 70.8934 215.73 70.5734C215.73 70.5334 215.97 70.3734 216.69 70.2134L218.05 69.8934C218.41 69.5734 218.33 68.6534 217.97 68.4934C216.61 68.5734 214.57 68.6134 212.13 68.6134C209.77 68.6134 208.29 68.5734 206.49 68.4934C206.01 68.6134 205.97 69.5734 206.33 69.8934L207.69 70.1334C209.09 70.3734 209.45 71.0134 210.25 72.6534L215.01 82.4934C216.05 84.6134 216.09 85.2534 216.09 87.2534V89.2534C216.09 92.9734 215.85 93.2534 214.05 93.5334L212.69 93.7334C212.37 93.9734 212.37 94.8934 212.69 95.1334C215.05 95.0534 217.05 95.0134 218.97 95.0134C220.89 95.0134 222.85 95.0534 225.45 95.1334C225.73 94.8934 225.73 93.9734 225.45 93.7334L223.85 93.5334C222.05 93.2934 221.81 92.9734 221.81 89.2534V86.4534Z" fill="#14274A"/>
</svg>
